# xmcd CD database file
#
# Track frame offsets:
#	150
#	12890
#	31355
#	45120
#	61850
#	77490
#	94287
#	109160
#	122335
#	141237
#
# Disc length: 2042 seconds
#
# Revision: 1
# Processed by: cddbd v1.5.1PL0 Copyright (c) Steve Scherf et al.
# Submitted via: CDex 1.40Release
#
DISCID=7107f80a
DTITLE=Rick Robledo - Lost in the shuffle
DYEAR=1900
DGENRE=Country
TTITLE0=Lost in the shuffle
TTITLE1=One step at a time
TTITLE2=Miles and miles of Texas
TTITLE3=I wonder if ou feel the way I do
TTITLE4=That's the way love goes
TTITLE5=One more time
TTITLE6=(Hay baby) Que Paso
TTITLE7=ou lied to me
TTITLE8=One night at a time
TTITLE9=Heart over mind
EXTD=ID3G: 2
EXTT0=
EXTT1=
EXTT2=
EXTT3=
EXTT4=
EXTT5=
EXTT6=
EXTT7=
EXTT8=
EXTT9=
PLAYORDER=
